<svg id="图层_1" data-name="图层 1" xmlns="http://www.w3.org/2000/svg" viewBox="0 0 773.15 342"><defs><style>.cls-1,.cls-4,.cls-6,.cls-7{fill:#fff;}.cls-1,.cls-3{stroke:#000;}.cls-1,.cls-2,.cls-3,.cls-4,.cls-6,.cls-7{stroke-miterlimit:10;}.cls-2,.cls-5{fill:#0071bc;}.cls-2,.cls-4,.cls-6,.cls-7{stroke:#0071bc;}.cls-3{fill:none;}.cls-6{stroke-width:6px;}.cls-7{stroke-width:3px;}</style></defs><title>zion</title><path class="cls-1" d="M567.33,113.33" transform="translate(-120.55 -112.5)"/><path class="cls-1" d="M609,156" transform="translate(-120.55 -112.5)"/><polygon class="cls-2" points="276.7 0.5 8.2 320 0.7 341.5 163.2 341.5 433.2 22.5 440.2 1 276.7 0.5"/><path class="cls-2" d="M479,340" transform="translate(-120.55 -112.5)"/><path class="cls-2" d="M453.25,361.5" transform="translate(-120.55 -112.5)"/><path class="cls-2" d="M475.78,346.18l-8.27,22.24-8.69,26.12L448,429.72l-8.09,23.87-108.08.05-19.55-.22,27.59-33.05,1.54.26a75.46,75.46,0,0,0,22.08-1.8,122.48,122.48,0,0,0,26.12-8.49,153.7,153.7,0,0,0,24.13-13.23,156.88,156.88,0,0,0,21-17,122.7,122.7,0,0,0,14.08-16.31c2.62-3.46,5.1-6.75,7.17-9.65" transform="translate(-120.55 -112.5)"/><path class="cls-2" d="M462.21,344.1c-.7,2.16-3.13,5.81-6.46,10.32" transform="translate(-120.55 -112.5)"/><path class="cls-2" d="M219.71,220.68c1.41-3.56,6.49-10.35,12.18-18a121.54,121.54,0,0,1,14-16.35A152.16,152.16,0,0,1,267,169.45a149.28,149.28,0,0,1,24.19-13,119.7,119.7,0,0,1,26.25-8.17,74.4,74.4,0,0,1,22.24-1.42l1.17-.12,27.62-33-19.54-.25-108.08-.06-8.12,23.85L221.83,172.4l-8.72,26.12-8,21.35" transform="translate(-120.55 -112.5)"/><path class="cls-3" d="M517.33,453.33" transform="translate(-120.55 -112.5)"/><polyline class="cls-2" points="361.06 319.81 389.45 233.83 432.45 233.83 432.45 256.17 403.95 340.83 381.11 340.81"/><path class="cls-3" d="M505.83,452.82" transform="translate(-120.55 -112.5)"/><path class="cls-2" d="M481.57,432a35.79,35.79,0,0,0-.37,7.9c.19,3.1.1,4.2.74,5.38.33.61,1.06,1.71,4.11,3.59a27.26,27.26,0,0,0,7.84,3.59,26.29,26.29,0,0,0,8.08.84" transform="translate(-120.55 -112.5)"/><path class="cls-2" d="M701.83,425.75a87.35,87.35,0,0,1-10,10,79.37,79.37,0,0,1-16.35,11c-11.76,5.74-22.32,6.11-34.79,6.5a119.07,119.07,0,0,1-28.93-2c-16.13-3.24-30.5-6.12-39.25-18-6.88-9.35-7.33-19.95-7.74-30.5-.27-6.93-.52-16,4.24-26.08A49.42,49.42,0,0,1,581,361c8.9-8.21,18-11.56,24-13.67,10.13-3.58,19.44-4.56,30-5.66,3-.32,5.65-.45,5.94-.47,4.75-.23,8.54-.07,11.37.05,7.59.33,20.48,0,34.26,6.5,5.92,2.8,10.79,5.24,14.24,7Z" transform="translate(-120.55 -112.5)"/><path class="cls-4" d="M684.5,370.75a31.63,31.63,0,0,0-8.17-8.08c-8.88-6-18.41-5.62-25.33-5.34a47.36,47.36,0,0,0-38.75,19.92A55.79,55.79,0,0,0,603,394.5c-1.6,5.11-4.62,14.77-1,25.83a34.6,34.6,0,0,0,8,13.34c6.19,6.22,13.22,8.11,18,9.33a50.62,50.62,0,0,0,33.75-2.75c1.36-.63,18.45-8.74,25.53-27.25.32-.83.55-1.51.72-2C689.12,407.45,695.48,386.19,684.5,370.75Z" transform="translate(-120.55 -112.5)"/><polyline class="cls-2" points="688.3 248.7 723.2 318.5 752.2 234.5 766.2 234.5 730.7 341 701.7 341"/><polyline class="cls-2" points="680.66 326.52 645.2 248 617.7 341 602.7 341 638.2 234.5 666.2 234.5"/><path class="cls-2" d="M801.08,438.33a26.07,26.07,0,0,0,5.12,7.33,28.36,28.36,0,0,0,16.38,7.84" transform="translate(-120.55 -112.5)"/><path class="cls-2" d="M809.2,361.93a25.15,25.15,0,0,0-5.31-7.1c-6.34-5.93-14.21-7.37-17.27-7.78" transform="translate(-120.55 -112.5)"/><path class="cls-5" d="M805,400.32a19.79,19.79,0,0,1,7.39,6.35l.23-1.82c-.22.2-6.67-3.32-3.91-5.67,1.46-1.24,3.48,2.34,4,3.09a30.79,30.79,0,0,1,3.72,7.73,1.5,1.5,0,0,0,2.9-.79,40.09,40.09,0,0,0-4.52-12.31,1.52,1.52,0,0,0-2.74.36,85.65,85.65,0,0,0-2.44,16.55h3q-.3-13.33-1.35-26.63a1.51,1.51,0,0,0-3-.4,89.41,89.41,0,0,0-3.92,16.79l2.94.4a79,79,0,0,1,3.07-24.55l-2.95-.39-.14,10.88c0,1.66,2.57,2.07,3,.4l1.8-7.93h-2.89l2.13,11.9c.31,1.68,3,1.27,3-.4A123.81,123.81,0,0,0,809,360.56c-.55-1.85-3.45-1.06-2.89.8a121.12,121.12,0,0,1,5.14,32.52l3-.4-2.14-11.9c-.26-1.47-2.58-1.39-2.89,0l-1.81,7.93,2.95.4.14-10.88a1.5,1.5,0,0,0-2.94-.4A81.28,81.28,0,0,0,804.33,404c0,1.6,2.71,2.14,2.95.4a89.7,89.7,0,0,1,3.92-16.8l-2.94-.39q1.05,13.29,1.35,26.63a1.5,1.5,0,0,0,3,0,82.15,82.15,0,0,1,2.33-15.75l-2.74.36A37,37,0,0,1,816.41,410l2.9-.79c-1.07-3.2-8.67-20-12.94-12.28-3.17,5.69,2,15.82,8.36,10a1.51,1.51,0,0,0,.23-1.82,23.08,23.08,0,0,0-8.46-7.42c-1.72-.89-3.24,1.7-1.52,2.59Z" transform="translate(-120.55 -112.5)"/><path class="cls-5" d="M787.38,350.13a1.5,1.5,0,0,0,0-3,1.5,1.5,0,0,0,0,3Z" transform="translate(-120.55 -112.5)"/><path class="cls-5" d="M787,349.88a15.78,15.78,0,0,0,2.53,4.23c1,1.13,2.76,2.56,4,.94a1.54,1.54,0,0,0,0-2.12,1.52,1.52,0,0,0-2.12,0l-.14.18.66-.38-.06,0,.75.2a4.64,4.64,0,0,1-1.53-1.64,11.9,11.9,0,0,1-1.25-2.23A1.54,1.54,0,0,0,788,348a1.52,1.52,0,0,0-1,1.85Z" transform="translate(-120.55 -112.5)"/><path class="cls-5" d="M789,350.38a8.08,8.08,0,0,0,2.52,4,1.53,1.53,0,0,0,2.12,0,1.51,1.51,0,0,0,0-2.12,5.34,5.34,0,0,1-1.75-2.65,1.5,1.5,0,0,0-2.89.8Z" transform="translate(-120.55 -112.5)"/><path class="cls-5" d="M791.7,352.87c3.75,2.87,10.81,4.95,12.77,9.46a33.5,33.5,0,0,1,1.55,6.43c.53,2.54,1.91,6.35,1.55,9l1.45-1.1c-2.18,0-3.32-16.1-4.59-17.83s-3.57-2.24-5.42-3c-2.35-.92-10.19-2.74-11-5.2-.51-1.51-3.09-1.38-2.94.39.74,8.81,2.74,17.35,4.87,25.91a1.51,1.51,0,0,0,3-.4c-.29-6.88,1.25-16.55-3.26-22.28-.74-.93-2.21-.31-2.51.67a15.93,15.93,0,0,0-.06,9.59c.39,1.36,2.58,1.51,2.89,0,.71-3.45.3-7,4.61-5.41a54.15,54.15,0,0,1,9.6,4.65l.75-2.8c-3-.2-5.89-1.9-8.81-2.69a45.53,45.53,0,0,0-6.76-1.18c-1.77-.2-1.89,2.42-.4,2.95,4.16,1.47,11.76,2.89,14.3,6.77l1.3-2.25c-4.86-.6-8.94-3.11-14-3.2a1.51,1.51,0,0,0-.4,2.95c4.87,1.67,9.59,3.45,13.76,6.54l.75-2.79c-1.88-.15-4.18-2.68-5.83-3.68s-5.87-2-6.44-4.19l-2.5,1.46c2.3,2,2.41,8.76,3,11.59.28,1.41,2.65,1.45,2.89,0,.47-2.78.8-5.55,1-8.36.13-1.72-2.49-2-2.94-.4a34.38,34.38,0,0,0-.74,16.22c.32,1.75,2.84,1.2,2.94-.4a17.79,17.79,0,0,0-1-7.45,1.51,1.51,0,0,0-2.5-.67,9.43,9.43,0,0,0-2.79,9.66c.41,1.7,2.86,1.25,2.94-.4a8.77,8.77,0,0,1,1.54-5.23l-2.79-.76c0,2.05-.08,4.09-.22,6.14-.13,1.72,2.49,2,2.94.4q2.46-8.7,5.46-17.22l-2.89-.8-3.51,16.6a1.5,1.5,0,0,0,2.89.79,90.88,90.88,0,0,0,3.32-11.93h-2.89a27,27,0,0,1,1.22,9.49c-.08,1.66,2.7,2.1,2.94.4a69.16,69.16,0,0,1,1.9-9l-3-.4a22.26,22.26,0,0,1-.48,5.5H802c-.7-2.79-.8-6.37-3.14-8.3-1-.85-3.06-.09-2.51,1.46l3.57,9.89a1.52,1.52,0,0,0,2.74.36l4.59-7.49-2.8-.76c.14,2.34.19,4.67.13,7h3a8.61,8.61,0,0,0-.26-2.53c-.34-1.63-3.14-1.3-3,.4a38.17,38.17,0,0,0,1.7,7.82,1.52,1.52,0,0,0,2.74.36l.4-.78-2.74-1.16.85.84-1.14-2.83c-.48-1.35-.83-2.76-1.24-4.13a44.16,44.16,0,0,0-2.27-6,1.52,1.52,0,0,0-2.74.36,17.77,17.77,0,0,0,.88,10.12,1.52,1.52,0,0,0,2.9,0c1-2.5,3.9-6.48,2.27-9.14a3,3,0,0,0-4.92-.56,4.75,4.75,0,0,0-.84,2.26c-.77,2.77-1.77,3.49-4,5.17s-5,3.15-4.79,6.1a1.52,1.52,0,0,0,2.8.76l3.63-5.37-2.59-1.51a20,20,0,0,1-4.2,6.1l2.35,1.81a5.65,5.65,0,0,1,2.29-3l-2.56-1.06a22.18,22.18,0,0,1-1.51,7.16c-.69,1.81,2.2,2.57,2.9.8a68.11,68.11,0,0,0,2.18-6.56c.52-1.92-2.18-2.53-2.9-.8-1.34,3.25-3.61,7.53-2.29,11a1.53,1.53,0,0,0,2.75.36,66.84,66.84,0,0,0,6-11.95l-2.89-.8-4.82,12.19c-.71,1.81,2.17,2.54,2.9.79l5.25-12.62c.43-1-.84-2.19-1.85-1.84l-1.83.64,1.85,1.05a12.73,12.73,0,0,1-.44-4.71,1.51,1.51,0,0,0-3-.4,28.53,28.53,0,0,0-.37,15.68,1.51,1.51,0,0,0,2.74.35c2-3.9,3.79-7.87,5.44-11.94l-3-.39a58.61,58.61,0,0,1-1,11.67l2.89.8,1.85-12.3-2.94-.4-.3,9.72a1.52,1.52,0,0,0,2.8.76,38.42,38.42,0,0,0,3.19-6.22H804c.51,2.34.94,4.67,1.28,7,.21,1.44,2.67,1.42,2.9,0a61.1,61.1,0,0,0,.82-10.55,1.52,1.52,0,0,0-2.8-.76c-4.18,5.43.39,9.16-.13,14.9-.12,1.25,1.33,1.71,2.25,1.3.49-.22,1.59,1.1,2.19,1.12.78,0-1.3-3.63-1.74-5.09a12.45,12.45,0,0,0-3-5.5,1.51,1.51,0,0,0-2.51.67l-1.73,12a1.5,1.5,0,0,0,2.89.8,39,39,0,0,0,2.14-9.94c.14-1.67-2.64-2.06-2.95-.39-1,5.61-1.83,11-.92,16.71.27,1.73,2.88,1.22,2.94-.4a43.05,43.05,0,0,0-2.8-17.29,1.52,1.52,0,0,0-2.74-.36,32.1,32.1,0,0,0-4.35,14h3l.76-11.16c.12-1.79-2.4-1.89-3-.4l-2.61,7,2.74-.36a11.1,11.1,0,0,1-1.44-3.66c-.47-1.76-2.76-1.19-3,.4-.32,2.61-.62,8.45,3.14,8.56l-1.5-1.5.46,5.05a1.51,1.51,0,0,0,3,.4c1.59-4.06,3-8.15,4.2-12.34.5-1.71-1.8-2.49-2.74-1.15a49.35,49.35,0,0,0-5.65,10.58l2.89.8c.93-3.79,3.42-6.7,4.55-10.36.82-2.68-1.35-4-.89-6.4l-1.85,1.05c2.71.61,2.54,2.95,1.75,4.75-.34.76-.72,1.5-1,2.27a10.67,10.67,0,0,0-.79,4.95c.11,1.59,2.56,2.15,2.94.4.81-3.68,3.11-6.73,4-10.4.43-1.87-2.43-2.67-2.9-.79q-2.2,8.86-3.9,17.84l3,.4a10.6,10.6,0,0,1,1.52-5.94l-2.74-1.16a49.76,49.76,0,0,1-2.73,8l2.79.76-.14-4.62a1.5,1.5,0,0,0-2.94-.4,35,35,0,0,0-1.12,6.33c-.15,1.69,2.56,2,3,.4l2.48-10.41-2.94-.4c-.22,3.18-.56,6.33-1,9.48l2.74-.36c-1-2.25,4.2-3.7,5.54-4.44L803,403.5a13.82,13.82,0,0,1-2.24,5.33c-1.1,1.6,1.5,3.1,2.59,1.52a15.25,15.25,0,0,0,2.54-6.06,1.52,1.52,0,0,0-2.21-1.69c-3.58,2-9,3.36-6.61,8.54a1.51,1.51,0,0,0,2.74-.35c.51-3.42.9-6.83,1.14-10.28.11-1.69-2.56-2-3-.39l-2.49,10.4,3,.4a30.11,30.11,0,0,1,1-5.53l-3-.4.14,4.62c0,1.36,2.16,2.2,2.8.76a54.33,54.33,0,0,0,3-8.76,1.51,1.51,0,0,0-2.74-1.16,13.57,13.57,0,0,0-1.93,7.46c0,1.63,2.62,2.12,2.94.4q1.69-9,3.91-17.85l-2.9-.79c-.85,3.66-3.15,6.71-4,10.39l2.95.4c-.48-6.3,7.67-12.64-2.14-14.87a1.54,1.54,0,0,0-1.85,1.05c-.54,2.88,1.19,5.11.09,8.12s-2.95,5.43-3.74,8.64a1.5,1.5,0,0,0,2.89.8,46.19,46.19,0,0,1,5.35-9.87l-2.74-1.15c-1.21,4.18-2.61,8.28-4.2,12.33l2.94.4-.46-5.05a1.54,1.54,0,0,0-1.5-1.5c-.39,0-.19-5.18-.14-5.56l-2.95.39a19.92,19.92,0,0,0,1.75,4.39,1.52,1.52,0,0,0,2.74-.36l2.61-7-2.94-.4L795.74,402c-.13,1.94,2.85,1.92,3,0a28.36,28.36,0,0,1,3.94-12.49l-2.74-.35a41.24,41.24,0,0,1,2.69,16.49l3-.4c-.82-5.14,0-10,.92-15.12l-2.94-.4a36,36,0,0,1-2,9.14l2.89.8,1.73-12-2.51.67c3,3.3,1.17,8.66,4.87,11.55,2,1.56,5.17,1.59,6.65-.73a3.48,3.48,0,0,0-.87-4.85,21.4,21.4,0,0,0-4.43-1.37c-1.58-.35-1.57-.52-3.08.15l2.26,1.29c.42-4.69-3.39-9.34-.28-13.39l-2.79-.75a55.87,55.87,0,0,1-.72,9.75h2.9c-.35-2.36-.77-4.69-1.29-7-.35-1.6-2.39-1.24-2.89,0a33.75,33.75,0,0,1-2.89,5.49l2.79.76.3-9.72c0-1.65-2.7-2.09-2.95-.4l-1.85,12.3c-.28,1.88,2.58,2.71,2.89.8a62.21,62.21,0,0,0,1.12-12.47,1.51,1.51,0,0,0-3-.4c-1.54,3.82-3.26,7.55-5.13,11.22l2.74.36a25.26,25.26,0,0,1,.37-14.08l-2.94-.4a21.59,21.59,0,0,0,.55,5.5,1.49,1.49,0,0,0,1.84,1.05l1.83-.64-1.84-1.84-5.26,12.62,2.9.79,4.81-12.18c.71-1.81-2.17-2.55-2.89-.8a63.5,63.5,0,0,1-5.71,11.24l2.74.36c-1-2.62,1.27-7,2.29-9.44l-2.9-.8a63,63,0,0,1-2.18,6.56l2.9.8a24.7,24.7,0,0,0,1.61-8,1.52,1.52,0,0,0-2.56-1.06,9.53,9.53,0,0,0-2.76,3.6c-.69,1.48,1.08,3.09,2.36,1.82a21.49,21.49,0,0,0,4.67-6.71,1.5,1.5,0,0,0-2.59-1.51l-3.63,5.36,2.79.76c-.24-3.37,7.81-5.28,9-8.5.15-.4.43-1.79,0-2.06-.11-.08-2.47,5.49-2.66,5.93h2.9a14.94,14.94,0,0,1-.89-8.52l-2.74.36c1.42,3,2.13,6.24,3.21,9.4.44,1.28,1,3.78,2.24,4.52,2.26,1.33,3.17-.7,3.83-2.53.58-1.6-2-2.67-2.74-1.16l-.4.78,2.75.36a34.35,34.35,0,0,1-1.6-7l-2.94.4.15,1.73c0,1.93,2.95,1.93,3,0,.06-2.34,0-4.67-.13-7a1.51,1.51,0,0,0-2.79-.75l-4.59,7.49,2.74.36-3.56-9.9-2.51,1.46c1.72,1.42,1.86,4.95,2.37,7a1.51,1.51,0,0,0,2.89,0,27.19,27.19,0,0,0,.59-6.3,1.5,1.5,0,0,0-2.94-.4,69.31,69.31,0,0,0-1.9,9l3,.39a29.11,29.11,0,0,0-1.33-10.28c-.41-1.33-2.58-1.53-2.89,0a91.31,91.31,0,0,1-3.32,11.93l2.89.79,3.51-16.59a1.5,1.5,0,0,0-2.89-.8q-3,8.53-5.46,17.22l3,.4c.14-2.05.21-4.09.22-6.14a1.51,1.51,0,0,0-2.8-.76,14.43,14.43,0,0,0-2,6.75l3-.39a6.67,6.67,0,0,1,2-6.75l-2.51-.66a16.41,16.41,0,0,1,.88,6.66l3-.4a30.8,30.8,0,0,1,.74-14.62l-3-.4c-.19,2.54-.48,5.05-.9,7.56h2.89c-.74-3.82-.61-10.13-3.73-12.92a1.52,1.52,0,0,0-2.51,1.46c.84,3.2,3.86,3.8,6.51,5.24,2.88,1.57,5.29,4.57,8.65,4.84,1.65.13,1.82-2,.76-2.8-4.38-3.25-9.35-5.09-14.48-6.85l-.39,2.95c5,.09,9.12,2.6,14,3.2a1.51,1.51,0,0,0,1.29-2.26c-3.07-4.69-11.14-6.41-16.09-8.16l-.4,3c5.39.6,10.28,3.53,15.57,3.87,1.54.1,2-2.06.76-2.79-4.29-2.58-10.16-6-15.28-6.29a1.5,1.5,0,0,0-1.3.74c-1.37,2.28-1.51,5.54-2,8.11h2.89a13.27,13.27,0,0,1,.06-8l-2.51.67c3.48,4.4,2.16,14.67,2.39,20.15l3-.4c-2.07-8.29-4.06-16.57-4.77-25.11l-2.95.4c.71,2.12,2,2.84,4,3.76s4.43,1.72,6.62,2.57l3.32,1.29q3.51,1,3.44,4.07c1.25,3.52,1,16.6,6.54,16.51a1.51,1.51,0,0,0,1.44-1.11c.39-2.81-.64-6-1.18-8.77-.64-3.21-1-6.82-2.56-9.76-2.5-4.85-9.34-6.52-13.5-9.72-1.53-1.18-3,1.43-1.52,2.59Z" transform="translate(-120.55 -112.5)"/><path class="cls-5" d="M802.25,403.63a1.5,1.5,0,0,0,0-3,1.5,1.5,0,0,0,0,3Z" transform="translate(-120.55 -112.5)"/><path class="cls-5" d="M802.63,404.63a1.5,1.5,0,0,0,0-3,1.5,1.5,0,0,0,0,3Z" transform="translate(-120.55 -112.5)"/><path class="cls-5" d="M801.75,404.75a1.5,1.5,0,0,0,0-3,1.5,1.5,0,0,0,0,3Z" transform="translate(-120.55 -112.5)"/><path class="cls-5" d="M792.13,361.94c.09,0,.45.32.21.09l.26.27c0,.06.11.12.16.19h0l.35.46a4.12,4.12,0,0,0,1.9,1.44,1.5,1.5,0,1,0,.8-2.89c.38.13-.26-.25,0,0a3.07,3.07,0,0,1-.26-.25s-.29-.35-.08-.09l-.28-.36a4.48,4.48,0,0,0-1.59-1.47,1.54,1.54,0,0,0-2,.54,1.51,1.51,0,0,0,.54,2.05Z" transform="translate(-120.55 -112.5)"/><path class="cls-5" d="M803.77,437.32c-1.3-3.34-.92-7.52-1.1-11.07-.1-1.92-3.1-1.93-3,0,.19,3.8-.2,8.28,1.21,11.87.69,1.78,3.59,1,2.89-.8Z" transform="translate(-120.55 -112.5)"/><path class="cls-5" d="M801.86,431.2a125.68,125.68,0,0,1-2.12-21.54l-3,.4a144.94,144.94,0,0,1,3,17.8,1.52,1.52,0,0,0,2.8.76c2.36-3.23,2.21-6.3,2.12-10.19-.1-4.07.56-9-.64-12.91a1.57,1.57,0,0,0-1.45-1.1c-6.13-.76-6.31,8.05-5.51,12,.43,2.12,3.08,9.09,5.81,4a6.19,6.19,0,0,0,.34-2.33c.33-2.93,1-5.85,1.35-8.77.17-1.66.26-3.55-1.54-4.31-5.3-2.23-5,9.93-4.77,12.34.12,1.36,2.05,2.2,2.79.76,2.48-4.8,6.4-8.73,8.71-13.55a1.53,1.53,0,0,0-1.3-2.26c-5-.55-5.49,4.64-4.81,8.33a1.49,1.49,0,0,0,1.84,1.05c2.89-1.13,6.1-1.74,8.91-2.84,1.38-.55,1.84-.6,2.4-2a1.5,1.5,0,0,0-1.45-1.89c-2.79.27-7.71-.1-10.3,1-.94.41-1.71.47-2,1.66a2.32,2.32,0,0,0,.83,2.22c.61.59,1.16.35,1.7.71,1.61-.44,1.88.06.83,1.5a20.12,20.12,0,0,1-2.37,1.39l2.05,2.06,1.74-2.43a1.52,1.52,0,0,0-1.06-2.56,3.17,3.17,0,0,0-2.55.33l1.16,2.75c-4.18,2.59-3.26,6.72-3,10.93.27,4.49-1.49,8.76-.5,13.35,1.63,7.57,13.06,12.81,19.6,15.24,1.7.63,2.45-1.83,1.16-2.74-1.49-1.07-1.68-9.71-1.63-11.36.11-3.66,1-7.24.94-10.91-.2-7.35-3.15-15.31-5.9-22-.44-1.08-2.1-1.63-2.74-.36-2.23,4.37-.16,8.1,1.21,12.43,2.11,6.66,4.2,13.84,2.79,20.76l2.95.4c-1-10.29.18-21.92-8.29-29.47a1.51,1.51,0,0,0-2.51,1.46c2.16,8.37,4,16.88,7.88,24.66a1.52,1.52,0,0,0,2.8-.76c-.49-8.43-1.95-20.48-11.4-23.18a1.51,1.51,0,0,0-1.46,2.5c1.94,2.24,1.91,4.59,2.44,7.28s1.95,5.28,2.89,7.95c.88,2.51,1.08,5.17,2,7.68,1.26,3.64,3.83,6.65,2.41,10.83l2.51-.66c-1.6-2.08-2.12-6.72-2.8-9.19q-1.26-4.53-2.32-9.09c-1.24-5.27-2.53-10.37-5.16-15.14a1.5,1.5,0,0,0-2.05-.53c-5.71,4.32-4.16,14.78-4.58,21.13-.14,1.92,2.87,1.92,3,0,.3-4.56-.82-15.58,3.1-18.54l-2.06-.54c3.25,5.89,4.3,12.45,5.94,18.89,1.18,4.6,1.87,11.33,4.81,15.13.74,1,2.18.28,2.5-.67a10.27,10.27,0,0,0-.27-7.51,66.7,66.7,0,0,1-2.78-7.24,52.79,52.79,0,0,0-1.31-5.35,64.3,64.3,0,0,1-3.12-11c-.43-2.48-1.34-3.64-3-5.53L808,414.86c7.58,2.17,8.81,13.6,9.2,20.29l2.79-.76c-3.76-7.53-5.49-15.84-7.58-23.94l-2.5,1.46c7.79,6.95,6.51,17.92,7.41,27.35.14,1.56,2.58,2.18,2.94.4,1.07-5.25.53-9.29-.74-14.47-.59-2.38-1.13-4.78-1.83-7.13-1-3.4-3.53-7.36-1.73-10.88l-2.74-.35a112.22,112.22,0,0,1,4.36,13.53c1.43,5.38,1.36,9.83.78,15.27a54.11,54.11,0,0,0,.37,12.13c.28,2.33.47,3.75,2.46,5.17l1.15-2.75C817.2,448.3,810,445,806.75,440.4c-3.77-5.38-1-11.62-1.55-17.61a14,14,0,0,1-.17-3.42c.56-2.85,1.33-1.86,2.2-3.51.53-1,1.22-1.65,1.1-2.92-.23-2.51-2.56-3.14-4.44-2-1.38.85-.48,3.42,1.15,2.74l1.75-.23-1.06-2.56a18.8,18.8,0,0,0-2.21,3,1.51,1.51,0,0,0,2.05,2.06c2.14-1.17,7.45-3.79,5.5-7a3.66,3.66,0,0,0-3.41-1.5c-.86-.2-1.1.22-.72,1.25l2.53-.25,5.89-.58-1.44-1.9c0-.07-8.57,2.53-9.21,2.78l1.84,1,1.92-4.54L807.18,403c-2.3,4.8-6.23,8.77-8.71,13.56l2.8.75c-.2-2.1-.84-6.07.48-7.83-1,1.26-1,3.38-1.23,4.88-.15,1.08.09,7.25-.14,2.94-.09-1.73-2.59-10.51,2.21-9.92l-1.44-1.11c.94,3.08.41,7.15.48,10.35.09,3.65.65,7.28-1.66,10.44l2.79.76a152.19,152.19,0,0,0-3.08-18.6c-.38-1.67-2.93-1.27-2.94.4-.08,7.53,1,14.92,2.23,22.33.31,1.9,3.2,1.1,2.89-.79Z" transform="translate(-120.55 -112.5)"/><path class="cls-5" d="M803.49,435.4c1,6.49,6.39,9.63,12.06,11.88,1.25.49,2.33-1.16,1.69-2.2-2.75-4.51-3.12-9.92-4.8-14.85-1.78-5.2-4.15-10.13-4.78-15.65-.17-1.53-2.62-2.22-2.94-.4-1.36,7.66.7,14.66,3.19,21.88.63,1.81,3.53,1,2.89-.8-2.27-6.58-4.44-13.24-3.19-20.29l-3-.39c.66,5.82,3,11,4.88,16.45,1.79,5.21,2.2,10.79,5.11,15.56l1.7-2.2c-4.7-1.87-9.09-4.36-10-9.78-.3-1.91-3.19-1.1-2.89.79Z" transform="translate(-120.55 -112.5)"/><path class="cls-5" d="M807.75,431.13a1.5,1.5,0,0,0,0-3,1.5,1.5,0,0,0,0,3Z" transform="translate(-120.55 -112.5)"/><path class="cls-5" d="M809.8,439.9l.32,1.22,2.89-.8a45.66,45.66,0,0,0-3.81-7.75c-1.26-2-1.81-4.14-4.19-5-1.83-.63-2.62,2.27-.8,2.89,1,.33,1.48,2.1,1.95,2.9s.92,1.36,1.34,2.07a40.21,40.21,0,0,1,2.62,5.65c.7,1.75,3.4,1.12,2.89-.8l-.32-1.22a1.5,1.5,0,0,0-2.89.8Z" transform="translate(-120.55 -112.5)"/><path class="cls-5" d="M803.54,430.4a21.11,21.11,0,0,0,2.87,4.93,1.51,1.51,0,0,0,2.12,0,1.53,1.53,0,0,0,0-2.12,15.66,15.66,0,0,1-2.09-3.61,1.55,1.55,0,0,0-1.85-1,1.5,1.5,0,0,0-1.05,1.84Z" transform="translate(-120.55 -112.5)"/><path class="cls-5" d="M806.34,437.29a24.44,24.44,0,0,0,1.68,5.56,1.5,1.5,0,1,0,2.59-1.51,22,22,0,0,1-1.38-4.85c-.33-1.9-3.22-1.09-2.89.8Z" transform="translate(-120.55 -112.5)"/><path class="cls-5" d="M803.33,435.14c3.95,3.1,6,7.56,8.08,12,.79,1.76,3.38.23,2.59-1.51-2.13-4.69-4.41-9.4-8.55-12.64-1.51-1.17-3.64.93-2.12,2.12Z" transform="translate(-120.55 -112.5)"/><path class="cls-5" d="M813.2,442a66.06,66.06,0,0,1-5-15.25c-.38-1.89-3.27-1.09-2.89.8a69,69,0,0,0,5.33,16c.82,1.75,3.41.23,2.59-1.51Z" transform="translate(-120.55 -112.5)"/><path class="cls-5" d="M807.37,432.38a77.3,77.3,0,0,0,3.9,10.28c.8,1.75,3.39.23,2.59-1.51a72.53,72.53,0,0,1-3.6-9.57c-.55-1.84-3.45-1.06-2.89.8Z" transform="translate(-120.55 -112.5)"/><path class="cls-5" d="M815,449.54a1.59,1.59,0,0,0,1.75,0,1.53,1.53,0,0,0,.54-2.05,1.51,1.51,0,0,0-2-.54l-.08.05.76-.2h-.09l.76.2-.08-.05a1.51,1.51,0,0,0-2,.54,1.53,1.53,0,0,0,.54,2.05Z" transform="translate(-120.55 -112.5)"/><path class="cls-5" d="M814.68,438.86a71.37,71.37,0,0,0-6.4-13.86,1.5,1.5,0,0,0-2.59,1.52,67.51,67.51,0,0,1,6.1,13.13c.62,1.82,3.52,1,2.89-.79Z" transform="translate(-120.55 -112.5)"/><path class="cls-5" d="M814.67,434.26a13.22,13.22,0,0,0-.7-6.17c-.65-1.8-3.55-1-2.89.8a11.27,11.27,0,0,1,.59,5.37,1.51,1.51,0,0,0,1.5,1.5,1.54,1.54,0,0,0,1.5-1.5Z" transform="translate(-120.55 -112.5)"/><path class="cls-2" d="M462,344.5a12.09,12.09,0,0,1,.79-1.58,12.27,12.27,0,0,1,1.5-2,7.28,7.28,0,0,1,6-2.13c2.82.39,5.61,2.71,5.79,5.5a5.1,5.1,0,0,1-.62,2.71" transform="translate(-120.55 -112.5)"/><path class="cls-2" d="M219.92,220.15c-1.29,3.88-4.18,6.67-7.51,7.07a6.57,6.57,0,0,1-5.28-1.47c-2.47-2.26-1.9-5.76-1.85-6" transform="translate(-120.55 -112.5)"/><polyline class="cls-6" points="383.83 199.52 469.44 114.52 520.99 114.69"/><line class="cls-6" x1="487.02" y1="127.84" x2="410.58" y2="199.67"/><line class="cls-6" x1="501.29" y1="142.33" x2="436.61" y2="199.92"/><line class="cls-6" x1="509.7" y1="157.04" x2="462.23" y2="199.92"/><line class="cls-6" x1="484.84" y1="128.75" x2="536.39" y2="128.75"/><line class="cls-6" x1="499.11" y1="143" x2="550.65" y2="143"/><line class="cls-6" x1="552.75" y1="114.04" x2="534.33" y2="129.54"/><line class="cls-6" x1="550.86" y1="114.75" x2="602.4" y2="114.75"/><line class="cls-6" x1="567.16" y1="128.25" x2="548.7" y2="143.63"/><line class="cls-6" x1="565.12" y1="129" x2="616.67" y2="129"/><line class="cls-6" x1="631.09" y1="114.88" x2="682.64" y2="114.88"/><line class="cls-6" x1="633.04" y1="114.25" x2="614.58" y2="129.75"/><line class="cls-6" x1="567.74" y1="143" x2="619.29" y2="143"/><line class="cls-6" x1="635.91" y1="128.17" x2="617.33" y2="143.71"/><line class="cls-6" x1="507.67" y1="157.8" x2="607.13" y2="157.8"/><line class="cls-6" x1="633.91" y1="128.88" x2="670.45" y2="128.88"/><ellipse class="cls-7" cx="434.02" cy="202.25" rx="4.6" ry="4.58"/><path class="cls-5" d="M461.68,348.54a7,7,0,0,0-1,.66,1.54,1.54,0,0,0-.54,2.05,1.51,1.51,0,0,0,2,.54,6.64,6.64,0,0,1,1.05-.66,1.5,1.5,0,0,0-1.52-2.59Z" transform="translate(-120.55 -112.5)"/><path class="cls-5" d="M460.58,349.29a11.19,11.19,0,0,0-2.39,1.65c-.59.56-1.53.88-1.68,1.79a1.58,1.58,0,0,0,.69,1.7,1.91,1.91,0,0,0,1.55.12,1.51,1.51,0,0,0,1.05-1.84,1.53,1.53,0,0,0-1.84-1c-.21,0-.2,0,0,0l.76.21-.05,0,.69,1.69-.34.47.15-.09a1.69,1.69,0,0,0,.36-.23,9.61,9.61,0,0,0,.91-.78,9,9,0,0,1,1.62-1c1.68-.94.17-3.54-1.52-2.59Z" transform="translate(-120.55 -112.5)"/><path class="cls-5" d="M460.89,352.79a5.18,5.18,0,0,0,.67-1.13,14.43,14.43,0,0,1,.68-2.08c-1.32.92-.56,3.27,1.16,2.74a50.06,50.06,0,0,0,5.5-1.72c1.68-.73,3.08-.89,4.38-2.24a1.52,1.52,0,0,0-1.07-2.56,25.87,25.87,0,0,0-8.17.7c-1.87.48-1.07,3.38.8,2.9a22.87,22.87,0,0,1,7.37-.6l-1.06-2.56c-.9.94-2.27,1.05-3.44,1.61a35.11,35.11,0,0,1-5.11,1.58l1.16,2.74c2.13-1.49,2.23-3.94-.54-4.87a2.65,2.65,0,0,0-2.56.2c-1.21.81-1.2,2.3-1.89,3.17-1.19,1.5.92,3.63,2.12,2.12Z" transform="translate(-120.55 -112.5)"/><ellipse class="cls-7" cx="407.85" cy="202.08" rx="4.6" ry="4.58"/><ellipse class="cls-7" cx="381.18" cy="201.92" rx="4.6" ry="4.58"/><ellipse class="cls-7" cx="610.68" cy="157.58" rx="4.6" ry="4.58"/><ellipse class="cls-7" cx="570.18" cy="142.75" rx="4.6" ry="4.58"/><ellipse class="cls-7" cx="524.18" cy="114.75" rx="4.6" ry="4.58"/><ellipse class="cls-7" cx="605.68" cy="114.42" rx="4.6" ry="4.58"/><path class="cls-5" d="M466.83,348.18a4.12,4.12,0,0,1,0-1.64l-.89.69a5.94,5.94,0,0,1,1.88,0v-3a16.43,16.43,0,0,0-4.21.12,4.09,4.09,0,0,0-2.36,2.81c-.37,1.16,1.14,2.5,2.2,1.69a2.63,2.63,0,0,0,1-1.56c.09-.28.6-1.1.79-1.56a1.5,1.5,0,0,0-1-1.84,1.54,1.54,0,0,0-1.85,1.05c-.15.35-.39.66-.57,1s-.21.79-.33,1.09l.69-.89-.16.12,2.2,1.69a1.36,1.36,0,0,1,.52-.82c-.44.22.55.11.6.11h2.56c1.95,0,1.89-2.84,0-3-1-.08-2.55-.33-3.34.45s-.73,2.42-.63,3.46c.19,1.91,3.19,1.93,3,0Z" transform="translate(-120.55 -112.5)"/><path class="cls-5" d="M472.46,348l.35.24-.44-1.06c-.09.72-3.32,1.37-3.72,1.45l-4.59.92c-1.89.38-1.09,3.27.8,2.89,2.87-.58,6.05-.84,8.63-2.33,1.88-1.09,2.68-3.51.49-4.7-1.7-.92-3.21,1.67-1.52,2.59Z" transform="translate(-120.55 -112.5)"/><polyline class="cls-2" points="630.79 234.5 595.12 341.17 602.7 341 638.2 234.5"/><polyline class="cls-2" points="766.2 234.5 772.45 234.5 736.45 340.83 730.7 341"/></svg>